<svg width="34" height="34" viewBox="0 0 34 34" fill="none" xmlns="http://www.w3.org/2000/svg">
<g id="logo">
<circle id="Ellipse 1" cx="17" cy="17" r="17" fill="#48A1B5"/>
<path id="Vector 1" d="M13.3063 26V20.6842H8C7.44772 20.6842 7 20.2365 7 19.6842V17V14.3158C7 13.7635 7.44772 13.3158 8 13.3158H13.3063V8C13.3063 7.44772 13.754 7 14.3063 7H19.6937C20.246 7 20.6937 7.44771 20.6937 8V13.3158H26C26.5523 13.3158 27 13.7635 27 14.3158V17V19.6842C27 20.2365 26.5523 20.6842 26 20.6842H20.6937V26C20.6937 26.5523 20.246 27 19.6937 27H14.3063C13.754 27 13.3063 26.5523 13.3063 26Z" fill="#FCFCFC"/>
<path id="Ellipse 3" d="M33.9844 17.001C33.9844 26.9225 25.8118 34.001 17 34.001C17.0026 32.6974 17 26.8898 17 17.501C17 7.50097 17.0001 0.000977416 17.0001 0.000977416C25.4998 -3.05176e-05 33.9844 6.74382 33.9844 17.001Z" fill="#0046FB" fill-opacity="0.2"/>
</g>
</svg>
