<svg width="652" height="325" viewBox="0 0 652 325" fill="none" xmlns="http://www.w3.org/2000/svg">
<path fill-rule="evenodd" clip-rule="evenodd" d="M238.798 57.129C244.85 54.4553 251.677 52.9512 258.901 52.9512C283.809 52.9512 304 70.8325 304 92.8903C304 113.954 285.588 131.209 262.239 132.722C262.24 132.777 262.241 132.832 262.241 132.887C262.241 132.969 262.242 133.052 262.242 133.134C262.242 155.192 242.05 173.073 217.143 173.073C204.213 173.073 192.555 168.255 184.332 160.535C177.753 163.858 170.138 165.756 162.022 165.756C158.167 165.756 154.425 165.328 150.853 164.522C150.875 165.033 150.886 165.546 150.886 166.061C150.886 188.119 130.695 206 105.787 206C82.5861 206 63.4769 190.485 60.9677 170.531C56.0315 172.174 50.6838 173.073 45.0989 173.073C20.1915 173.073 0 155.192 0 133.134C0 114.068 15.0857 98.1225 35.2631 94.1478C25.9286 86.8305 20.0439 76.1397 20.0439 64.2317C20.0439 42.174 40.2354 24.2927 65.1428 24.2927C75.5449 24.2927 85.1245 27.4114 92.7542 32.6507C98.9375 17.1256 115.65 6 135.297 6C155.124 6 171.963 17.3311 178.007 33.08C183.515 30.9575 189.595 29.7805 195.985 29.7805C215.925 29.7805 232.843 41.2405 238.798 57.129Z" fill="url(#paint0_linear_429_478)"/>
<path fill-rule="evenodd" clip-rule="evenodd" d="M395.798 51.129C401.85 48.4553 408.677 46.9512 415.901 46.9512C440.809 46.9512 461 64.8325 461 86.8903C461 107.954 442.588 125.209 419.239 126.722C419.24 126.777 419.241 126.832 419.241 126.887C419.241 126.969 419.242 127.052 419.242 127.134C419.242 149.192 399.05 167.073 374.143 167.073C361.213 167.073 349.555 162.255 341.332 154.535C334.753 157.858 327.138 159.756 319.022 159.756C315.167 159.756 311.425 159.328 307.853 158.522C307.875 159.033 307.886 159.546 307.886 160.061C307.886 182.119 287.695 200 262.787 200C239.586 200 220.477 184.485 217.968 164.531C213.032 166.174 207.684 167.073 202.099 167.073C177.191 167.073 157 149.192 157 127.134C157 108.068 172.086 92.1225 192.263 88.1478C182.929 80.8305 177.044 70.1397 177.044 58.2317C177.044 36.174 197.235 18.2927 222.143 18.2927C232.545 18.2927 242.124 21.4114 249.754 26.6507C255.937 11.1256 272.65 0 292.297 0C312.124 0 328.963 11.3311 335.007 27.08C340.515 24.9575 346.595 23.7805 352.985 23.7805C372.925 23.7805 389.843 35.2405 395.798 51.129Z" fill="url(#paint1_linear_429_478)"/>
<path fill-rule="evenodd" clip-rule="evenodd" d="M331.216 147.843C338.344 144.662 346.383 142.872 354.89 142.872C384.222 142.872 408 164.151 408 190.399C408 215.465 386.317 235.998 358.822 237.799C358.823 237.962 358.824 238.126 358.824 238.29C358.824 264.538 335.046 285.817 305.714 285.817C290.488 285.817 276.759 280.083 267.075 270.897C259.327 274.851 250.359 277.11 240.802 277.11C236.262 277.11 231.856 276.6 227.65 275.641C227.676 276.249 227.689 276.859 227.689 277.472C227.689 303.721 203.91 325 174.579 325C147.256 325 124.752 306.536 121.798 282.791C115.985 284.747 109.687 285.817 103.11 285.817C73.7781 285.817 50 264.538 50 238.29C50 215.601 67.7654 196.626 91.5269 191.896C80.5344 183.188 73.6045 170.466 73.6045 156.296C73.6045 130.047 97.3826 108.768 126.714 108.768C138.964 108.768 150.245 112.48 159.23 118.714C166.512 100.239 186.193 87 209.33 87C232.679 87 252.509 100.484 259.627 119.225C266.113 116.7 273.273 115.299 280.799 115.299C304.281 115.299 324.203 128.936 331.216 147.843Z" fill="url(#paint2_linear_429_478)"/>
<path fill-rule="evenodd" clip-rule="evenodd" d="M410.542 254.842C407.843 255.14 405.095 255.292 402.308 255.292C364.583 255.292 334 227.259 334 192.678C334 161.343 359.111 135.383 391.894 130.786C391.89 130.546 391.888 130.305 391.888 130.063C391.888 100.757 417.806 77 449.777 77C468.428 77 485.019 85.0855 495.606 97.6413C499.177 96.1972 503.126 95.3953 507.279 95.3953C517.838 95.3953 527.076 100.578 532.131 108.319C542.675 98.1775 557.554 91.8577 574.044 91.8577C606.015 91.8577 631.932 115.615 631.932 144.921C631.932 150.241 631.078 155.379 629.488 160.224C643.182 169.929 652 185.135 652 202.229C652 231.535 626.082 255.292 594.112 255.292C590.981 255.292 587.908 255.065 584.911 254.626C581.082 255.525 577.089 256 572.985 256H421.505C417.744 256 414.076 255.601 410.542 254.842Z" fill="url(#paint3_linear_429_478)"/>
<path fill-rule="evenodd" clip-rule="evenodd" d="M294.648 303.305C293.091 303.572 291.488 303.711 289.851 303.711C275.021 303.711 263 292.279 263 278.176C263 265.397 272.871 254.81 285.757 252.935C285.755 252.837 285.755 252.739 285.755 252.64C285.755 240.689 295.943 231 308.51 231C315.841 231 322.363 234.297 326.524 239.418C327.928 238.829 329.48 238.502 331.113 238.502C335.263 238.502 338.895 240.615 340.882 243.772C345.026 239.637 350.875 237.059 357.357 237.059C369.924 237.059 380.112 246.748 380.112 258.7C380.112 260.869 379.776 262.964 379.151 264.941C384.534 268.898 388 275.1 388 282.071C388 294.023 377.812 303.711 365.245 303.711C363.507 303.711 361.814 303.526 360.187 303.175C358.219 303.713 356.148 304 354.009 304H300.328C298.369 304 296.466 303.759 294.648 303.305Z" fill="url(#paint4_linear_429_478)"/>
<path fill-rule="evenodd" clip-rule="evenodd" d="M11.1302 192.319C10.6956 190.801 10.3828 189.222 10.2048 187.594C8.59314 172.853 18.6516 159.66 32.6709 158.127C45.3744 156.738 56.9712 165.4 60.2353 178.006C60.3328 177.994 60.4304 177.983 60.5283 177.972C72.4091 176.673 83.1476 185.747 84.5135 198.24C85.3103 205.528 82.7411 212.37 78.1032 217.063C78.8412 218.394 79.3351 219.902 79.5125 221.525C79.9636 225.651 78.2573 229.49 75.335 231.809C79.8967 235.479 83.0944 241.013 83.7989 247.456C85.1647 259.949 76.6406 271.129 64.7598 272.428C62.6029 272.664 60.4837 272.558 58.4514 272.152C55.102 277.933 49.3141 282.053 42.384 282.81C30.5032 284.109 19.7647 275.035 18.3988 262.542C18.2099 260.814 18.2102 259.111 18.3825 257.455C17.6339 255.558 17.1233 253.53 16.8909 251.404L11.0567 198.04C10.8438 196.093 10.8766 194.176 11.1302 192.319Z" fill="url(#paint5_linear_429_478)"/>
<defs>
<linearGradient id="paint0_linear_429_478" x1="152" y1="6" x2="152" y2="206" gradientUnits="userSpaceOnUse">
<stop stop-color="#FFFBFB"/>
<stop offset="1" stop-color="#FFFBFB" stop-opacity="0"/>
</linearGradient>
<linearGradient id="paint1_linear_429_478" x1="309" y1="0" x2="309" y2="200" gradientUnits="userSpaceOnUse">
<stop stop-color="#FFFBFB"/>
<stop offset="1" stop-color="#FFFBFB" stop-opacity="0"/>
</linearGradient>
<linearGradient id="paint2_linear_429_478" x1="229" y1="87" x2="229" y2="325" gradientUnits="userSpaceOnUse">
<stop stop-color="#FFFBFB"/>
<stop offset="1" stop-color="#FFFBFB" stop-opacity="0"/>
</linearGradient>
<linearGradient id="paint3_linear_429_478" x1="493" y1="77" x2="493" y2="256" gradientUnits="userSpaceOnUse">
<stop stop-color="#FFFBFB"/>
<stop offset="1" stop-color="#FFFBFB" stop-opacity="0"/>
</linearGradient>
<linearGradient id="paint4_linear_429_478" x1="325.5" y1="231" x2="325.5" y2="304" gradientUnits="userSpaceOnUse">
<stop stop-color="#FFFBFB"/>
<stop offset="1" stop-color="#FFFBFB" stop-opacity="0"/>
</linearGradient>
<linearGradient id="paint5_linear_429_478" x1="86.36" y1="215.13" x2="13.7924" y2="223.064" gradientUnits="userSpaceOnUse">
<stop stop-color="#FFFBFB"/>
<stop offset="1" stop-color="#FFFBFB" stop-opacity="0"/>
</linearGradient>
</defs>
</svg>
